# xmcd
#
# Track frame offsets: 
#        150
#        10467
#        32189
#        42693
#        55237
#        68333
#        90928
#        103923
#        116947
#        131565
#        142746
#        153269
#
# Disc length: 2152 seconds
#
# Revision: 0
# Processed by: cddbd v1.5.2PL0 Copyright (c) Steve Scherf et al.
# Submitted via: ExactAudioCopy v0.99pb3
#
DISCID=9f08660c
DTITLE=The Feinberg Brothers - The Feinberg Brothers
DYEAR=2016
DGENRE=Bluegrass
TTITLE0=I Do
TTITLE1=Bury Me On A Mountain
TTITLE2=Hi Dee Diddle
TTITLE3=The Cotton Farmer
TTITLE4=Bluegrass Swing
TTITLE5=Bergold's Farm
TTITLE6=Kentucky Is Only A Dream
TTITLE7=The Drifter
TTITLE8=Drifting and Dreaming Of You
TTITLE9=Casey Jones
TTITLE10=Arkansas
TTITLE11=Train 45
EXTD=
EXTT0=
EXTT1=
EXTT2=
EXTT3=
EXTT4=
EXTT5=
EXTT6=
EXTT7=
EXTT8=
EXTT9=
EXTT10=
EXTT11=
PLAYORDER=
